<svg width="900" height="420" viewBox="0 0 900 420" xmlns="http://www.w3.org/2000/svg">
  <defs>
    <linearGradient id="bg" x1="0" y1="0" x2="1" y2="1">
      <stop offset="0%" stop-color="#050a18"/>
      <stop offset="100%" stop-color="#0a1230"/>
    </linearGradient>
    <linearGradient id="scan" x1="0" y1="0" x2="0" y2="1">
      <stop offset="0%" stop-color="#00e5ff" stop-opacity="0"/>
      <stop offset="50%" stop-color="#00e5ff" stop-opacity="0.06"/>
      <stop offset="100%" stop-color="#00e5ff" stop-opacity="0"/>
    </linearGradient>
    <filter id="glow" x="-50%" y="-50%" width="200%" height="200%">
      <feGaussianBlur stdDeviation="2.2" result="blur"/>
      <feMerge>
        <feMergeNode in="blur"/>
        <feMergeNode in="SourceGraphic"/>
      </feMerge>
    </filter>
  </defs>

  <rect x="0" y="0" width="900" height="420" rx="18" fill="url(#bg)"/>
  <rect x="0" y="0" width="900" height="420" rx="18" fill="none" stroke="#00e5ff" stroke-opacity="0.35" stroke-width="1.5"/>

  <!-- faint grid -->
  <g stroke="#1a2a4a" stroke-width="0.5" opacity="0.5">
    <line x1="0" y1="60" x2="900" y2="60"/>
    <line x1="0" y1="120" x2="900" y2="120"/>
    <line x1="0" y1="180" x2="900" y2="180"/>
    <line x1="0" y1="240" x2="900" y2="240"/>
    <line x1="0" y1="300" x2="900" y2="300"/>
    <line x1="0" y1="360" x2="900" y2="360"/>
    <line x1="150" y1="0" x2="150" y2="420"/>
    <line x1="300" y1="0" x2="300" y2="420"/>
    <line x1="450" y1="0" x2="450" y2="420"/>
    <line x1="600" y1="0" x2="600" y2="420"/>
    <line x1="750" y1="0" x2="750" y2="420"/>
  </g>

  <!-- title bar -->
  <rect x="0" y="0" width="900" height="34" rx="18" fill="#0d1530"/>
  <rect x="0" y="18" width="900" height="16" fill="#0d1530"/>
  <circle cx="22" cy="17" r="6" fill="#ff5f56"/>
  <circle cx="42" cy="17" r="6" fill="#ffbd2e"/>
  <circle cx="62" cy="17" r="6" fill="#27c93f"/>
  <text x="450" y="21" text-anchor="middle" font-family="Courier New, monospace" font-size="12" fill="#5b6b9a">kyoze@github: ~/portfolio</text>

  <!-- ASCII portrait block (left) -->
  <g font-family="Courier New, monospace" font-size="10" fill="#00e5ff" filter="url(#glow)">
    <text x="40" y="80">      .:^~~~~~~^:.</text>
    <text x="40" y="94">   .~7J5PGGGGGGP5J7~.</text>
    <text x="40" y="108">  ~JG#@@@@@@@@@@@@#GJ~</text>
    <text x="40" y="122"> ~5&amp;@@@@@@@@@@@@@@@@&amp;5~</text>
    <text x="40" y="136">^P@@@@#GP5YYY5PG#@@@@P^</text>
    <text x="40" y="150">Y@@@@P^          ^P@@@@Y</text>
    <text x="40" y="164">#@@@#   .::    ::.  #@@@#</text>
    <text x="40" y="178">#@@@#  :##:    :##:  #@@@#</text>
    <text x="40" y="192">#@@@#   ..      ..   #@@@#</text>
    <text x="40" y="206">Y@@@@Y     ~==~     Y@@@@Y</text>
    <text x="40" y="220"> ~P@@@@P^  ....  ^P@@@@P~</text>
    <text x="40" y="234">  ~JG@@@@@@@@@@@@@GJ~</text>
    <text x="40" y="248">    :~JPGB####BGPJ~:</text>
    <text x="40" y="262">        .:^^^^:.</text>
    <text x="40" y="276">      .:~7YPGGP57~:.</text>
    <text x="40" y="290">    :75B@@@@@@@@@@B57:</text>
    <text x="40" y="304">  :JB@@@@@@@@@@@@@@@@BJ:</text>
    <text x="40" y="318"> ~P@@@@@@@@@@@@@@@@@@@@P~</text>
  </g>

  <!-- divider -->
  <line x1="370" y1="50" x2="370" y2="390" stroke="#1a2a4a" stroke-width="1"/>

  <!-- terminal info panel (right) -->
  <g font-family="Courier New, monospace" font-size="15" filter="url(#glow)">
    <text x="395" y="72" fill="#27c93f">root@github</text><text x="510" y="72" fill="#5b6b9a">:~$ whoami</text>
    <text x="395" y="100" fill="#00e5ff" font-size="24" font-weight="bold">KYOZE_</text>
    <text x="395" y="122" fill="#5b6b9a" font-size="12">> Web &amp; Mobile Developer</text>
  </g>

  <g font-family="Courier New, monospace" font-size="12.5" fill="#8fa3d9">
    <text x="395" y="155">STATUS     <tspan fill="#27c93f">[ ONLINE ]</tspan></text>
    <text x="395" y="177">LOCATION   Pontianak, Kalimantan Barat, ID</text>
    <text x="395" y="199">STACK      Nuxt.js / TypeScript / Vue / Node</text>
    <text x="395" y="221">REPOS      34 public repositories</text>
    <text x="395" y="243">FOCUS      Web apps &#183; Mobile &#183; IoT (ESP8266)</text>
  </g>

  <!-- skill bars -->
  <g font-family="Courier New, monospace" font-size="11" fill="#5b6b9a">
    <text x="395" y="272">TypeScript</text>
    <rect x="500" y="262" width="170" height="8" rx="2" fill="#132048"/>
    <rect x="500" y="262" width="150" height="8" rx="2" fill="#00e5ff"/>

    <text x="395" y="292">Vue / Nuxt</text>
    <rect x="500" y="282" width="170" height="8" rx="2" fill="#132048"/>
    <rect x="500" y="282" width="145" height="8" rx="2" fill="#00e5ff"/>

    <text x="395" y="312">Node.js</text>
    <rect x="500" y="302" width="170" height="8" rx="2" fill="#132048"/>
    <rect x="500" y="302" width="120" height="8" rx="2" fill="#00e5ff"/>
  </g>

  <!-- buttons -->
  <g font-family="Courier New, monospace" font-size="12">
    <rect x="395" y="335" width="150" height="34" rx="6" fill="none" stroke="#00e5ff" stroke-width="1"/>
    <text x="470" y="356" text-anchor="middle" fill="#00e5ff">VIEW PROFILE</text>

    <rect x="560" y="335" width="110" height="34" rx="6" fill="#00e5ff" fill-opacity="0.12" stroke="#00e5ff" stroke-width="1"/>
    <text x="615" y="356" text-anchor="middle" fill="#00e5ff">FOLLOW</text>
  </g>

  <text x="395" y="400" font-family="Courier New, monospace" font-size="11" fill="#3a4a75">_ cursor blinking &#183; last login: today from Pontianak, ID</text>
</svg>
